<svg width="24" height="43" viewBox="0 0 24 43" fill="none" xmlns="http://www.w3.org/2000/svg">
<circle cx="12" cy="21.5" r="11.5" fill="white" stroke="#E27410"/>
<g clip-path="url(#clip0_33_657)">
<path d="M8.44527 23.4768C9.62886 24.8916 11.0536 26.0056 12.6798 26.7938C13.299 27.0872 14.127 27.4353 15.0495 27.495C15.1067 27.4975 15.1614 27.5 15.2186 27.5C15.8377 27.5 16.335 27.2862 16.7403 26.846C16.7428 26.8436 16.7478 26.8386 16.7503 26.8336C16.8945 26.6596 17.0586 26.5029 17.2302 26.3363C17.347 26.2244 17.4664 26.1075 17.5808 25.9882C18.1104 25.4362 18.1104 24.735 17.5758 24.2004L16.0814 22.706C15.8278 22.4424 15.5244 22.3031 15.2061 22.3031C14.8879 22.3031 14.582 22.4424 14.3209 22.7035L13.4308 23.5937C13.3487 23.5464 13.2642 23.5041 13.1846 23.4644C13.0851 23.4146 12.9931 23.3674 12.9111 23.3152C12.1005 22.8005 11.3645 22.1291 10.6608 21.2663C10.3052 20.8162 10.0665 20.4383 9.89989 20.0528C10.1336 19.8415 10.3524 19.6202 10.5638 19.4039C10.6384 19.3268 10.7155 19.2497 10.7926 19.1726C11.0611 18.9041 11.2053 18.5932 11.2053 18.2775C11.2053 17.9617 11.0636 17.6508 10.7926 17.3823L10.0516 16.6413C9.96454 16.5543 9.88248 16.4697 9.79794 16.3827C9.63383 16.2136 9.46226 16.0396 9.29317 15.8829C9.03706 15.6318 8.73619 15.5 8.41792 15.5C8.10213 15.5 7.79877 15.6318 7.53271 15.8854L6.60275 16.8154C6.26458 17.1535 6.07312 17.5638 6.03333 18.0387C5.98609 18.633 6.0955 19.2646 6.37896 20.028C6.8141 21.2091 7.47055 22.3056 8.44527 23.4768ZM6.64005 18.091C6.66988 17.7603 6.7967 17.4843 7.0354 17.2455L7.96039 16.3206C8.10461 16.1813 8.26375 16.1092 8.41792 16.1092C8.56959 16.1092 8.72376 16.1813 8.86549 16.3255C9.03209 16.4797 9.18874 16.6413 9.35782 16.8129C9.44237 16.8999 9.5294 16.9869 9.61642 17.0765L10.3574 17.8174C10.5116 17.9716 10.5911 18.1283 10.5911 18.2824C10.5911 18.4366 10.5116 18.5932 10.3574 18.7474C10.2803 18.8245 10.2032 18.9041 10.1262 18.9811C9.89492 19.2149 9.67859 19.4362 9.43988 19.6475C9.43491 19.6525 9.43242 19.655 9.42745 19.66C9.22107 19.8663 9.25339 20.0628 9.30312 20.212C9.30561 20.2194 9.30809 20.2244 9.31058 20.2319C9.50204 20.6919 9.7681 21.1295 10.1834 21.6517C10.9293 22.5717 11.7151 23.2853 12.5804 23.8349C12.6873 23.9045 12.8017 23.9592 12.9086 24.0139C13.0081 24.0636 13.1001 24.1109 13.1821 24.1631C13.1921 24.168 13.1995 24.173 13.2095 24.178C13.2915 24.2203 13.3711 24.2402 13.4507 24.2402C13.6496 24.2402 13.7789 24.1133 13.8211 24.0711L14.7511 23.1411C14.8953 22.9969 15.052 22.9198 15.2061 22.9198C15.3951 22.9198 15.5493 23.0367 15.6463 23.1411L17.1456 24.638C17.444 24.9364 17.4415 25.2596 17.1382 25.5754C17.0337 25.6873 16.9243 25.7942 16.8075 25.9061C16.6334 26.0752 16.4519 26.2493 16.2878 26.4457C16.0018 26.754 15.6612 26.8983 15.2211 26.8983C15.1788 26.8983 15.134 26.8958 15.0918 26.8933C14.2762 26.8411 13.5178 26.5228 12.9484 26.2518C11.4018 25.5033 10.0441 24.4416 8.91771 23.0939C7.99023 21.9774 7.36611 20.938 6.95335 19.8241C6.69724 19.1403 6.60026 18.5908 6.64005 18.091Z" fill="#E27410"/>
</g>
<defs>
<clipPath id="clip0_33_657">
<rect width="12" height="12" fill="white" transform="translate(6 15.5)"/>
</clipPath>
</defs>
</svg>
