<svg width="111" height="111" viewBox="0 0 111 111" fill="none" xmlns="http://www.w3.org/2000/svg">
<path d="M50.65 2.27766C53.2351 -0.307395 57.4263 -0.307397 60.0113 2.27766L108.723 50.9889C111.308 53.5739 111.308 57.7651 108.723 60.3502L60.0113 109.061C57.4263 111.646 53.2351 111.646 50.65 109.061L1.93879 60.3502C-0.646262 57.7651 -0.646264 53.5739 1.93879 50.9889L50.65 2.27766Z" fill="white"/>
<path d="M40.9625 75.9999H69.9966V68.9601H52.8943V68.6817L58.8404 62.855C67.2125 55.2186 69.4597 51.4004 69.4597 46.7669C69.4597 39.7073 63.6926 34.7158 54.9625 34.7158C46.4114 34.7158 40.5449 39.8266 40.5648 47.8209H48.7381C48.7182 43.9232 51.1841 41.5368 54.9029 41.5368C58.4824 41.5368 61.1472 43.7641 61.1472 47.3436C61.1472 50.5851 59.1585 52.8124 55.4597 56.372L40.9625 69.7953V75.9999Z" fill="#2D3343"/>
</svg>
