<svg width="111" height="111" viewBox="0 0 111 111" fill="none" xmlns="http://www.w3.org/2000/svg">
<path d="M50.65 2.27766C53.2351 -0.307395 57.4263 -0.307397 60.0113 2.27766L108.723 50.9889C111.308 53.5739 111.308 57.7651 108.723 60.3502L60.0113 109.061C57.4263 111.646 53.2351 111.646 50.65 109.061L1.93879 60.3502C-0.646262 57.7651 -0.646264 53.5739 1.93879 50.9889L50.65 2.27766Z" fill="white"/>
<path d="M55.0165 76.5572C64.1642 76.5572 70.7068 71.5259 70.6869 64.5657C70.7068 59.4947 67.4852 55.8754 61.4994 55.1197V54.8015C66.0534 53.9862 69.1955 50.7646 69.1756 46.1907C69.1955 39.7674 63.5676 34.7163 55.1358 34.7163C46.7835 34.7163 40.4994 39.6083 40.3801 46.6481H48.633C48.7324 43.5458 51.5762 41.5373 55.096 41.5373C58.5762 41.5373 60.9029 43.6453 60.883 46.7078C60.9029 49.9095 58.1784 52.0771 54.2608 52.0771H50.4625V58.4009H54.2608C58.8744 58.4009 61.758 60.7078 61.7381 63.989C61.758 67.2305 58.9739 69.4578 55.0364 69.4578C51.2381 69.4578 48.3943 67.4691 48.2352 64.4862H39.5648C39.704 71.6055 46.0676 76.5572 55.0165 76.5572Z" fill="#2D3343"/>
</svg>
