<svg width="111" height="111" viewBox="0 0 111 111" fill="none" xmlns="http://www.w3.org/2000/svg">
<path d="M50.65 2.27766C53.2351 -0.307395 57.4263 -0.307397 60.0113 2.27766L108.723 50.9889C111.308 53.5739 111.308 57.7651 108.723 60.3502L60.0113 109.061C57.4263 111.646 53.2351 111.646 50.65 109.061L1.93879 60.3502C-0.646262 57.7651 -0.646264 53.5739 1.93879 50.9889L50.65 2.27766Z" fill="white"/>
<path d="M54.8375 76.5572C63.9057 76.5572 70.0705 70.6509 70.0506 62.418C70.0705 54.6225 64.6216 49.0146 57.2835 49.0146C53.704 49.0146 50.6216 50.506 49.1898 52.5146H48.9512L50.0051 42.3129H67.8034V35.2731H42.9057L40.9767 56.7504L48.633 58.1225C49.8858 56.4322 52.3119 55.3782 54.7182 55.3782C58.8148 55.3981 61.758 58.3612 61.758 62.6367C61.758 66.8725 58.8744 69.7958 54.8375 69.7958C51.4171 69.7958 48.6529 67.6481 48.454 64.4862H40.1017C40.2608 71.5259 46.4057 76.5572 54.8375 76.5572Z" fill="#2D3343"/>
</svg>
