<svg width="127" height="124" viewBox="0 0 127 124" fill="none" xmlns="http://www.w3.org/2000/svg">
<path d="M50.65 15.2777C53.2351 12.6926 57.4263 12.6926 60.0113 15.2777L108.723 63.9889C111.308 66.5739 111.308 70.7651 108.723 73.3502L60.0113 122.061C57.4263 124.646 53.2351 124.646 50.65 122.061L1.93879 73.3502C-0.646262 70.7651 -0.646264 66.5739 1.93879 63.9889L50.65 15.2777Z" fill="#E27410"/>
<path opacity="0.3" d="M59.9599 8.37018C62.5565 5.77358 66.7664 5.77358 69.363 8.37017L118.292 57.2989C120.888 59.8955 120.888 64.1054 118.292 66.702L69.363 115.631C66.7664 118.227 62.5565 118.227 59.9599 115.631L11.0312 66.702C8.43459 64.1054 8.43459 59.8955 11.0312 57.2989L59.9599 8.37018Z" fill="#E27410"/>
<path opacity="0.15" d="M66.3114 1.93916C68.8965 -0.645896 73.0877 -0.645898 75.6727 1.93916L124.384 50.6504C126.969 53.2354 126.969 57.4266 124.384 60.0117L75.6727 108.723C73.0877 111.308 68.8965 111.308 66.3114 108.723L17.6002 60.0117C15.0151 57.4266 15.0151 53.2354 17.6002 50.6504L66.3114 1.93916Z" fill="#E27410"/>
<path d="M55.5932 89.5572C64.6614 89.597 70.846 83.6509 70.8262 75.3583C70.846 67.722 65.5165 62.2134 58.2977 62.2134C53.8233 62.2134 49.8659 64.3612 48.0364 67.9606H47.758C47.7977 60.0259 50.5818 55.0941 55.8915 55.0941C59.0137 55.0941 61.2608 56.8043 61.9171 59.6481H70.4085C69.5932 52.9464 64.025 47.7163 55.8915 47.7163C45.829 47.7163 39.3659 55.8697 39.3261 69.5515C39.3063 84.4663 47.221 89.5174 55.5932 89.5572ZM55.5534 82.7958C51.5762 82.7958 48.633 79.5941 48.633 75.6168C48.6529 71.6595 51.6557 68.4379 55.6131 68.4379C59.5904 68.4379 62.4938 71.56 62.4739 75.597C62.4938 79.6737 59.5307 82.7958 55.5534 82.7958Z" fill="white"/>
</svg>
