<svg width="24" height="43" viewBox="0 0 24 43" fill="none" xmlns="http://www.w3.org/2000/svg">
<circle cx="12" cy="21.5" r="11.5" fill="white" stroke="#E27410"/>
<g clip-path="url(#clip0_33_1310)">
<path d="M8.44521 23.4768C9.6288 24.8916 11.0536 26.0056 12.6798 26.7938C13.2989 27.0872 14.1269 27.4353 15.0494 27.495C15.1066 27.4975 15.1613 27.5 15.2185 27.5C15.8377 27.5 16.335 27.2862 16.7403 26.846C16.7428 26.8436 16.7477 26.8386 16.7502 26.8336C16.8944 26.6596 17.0586 26.5029 17.2301 26.3363C17.347 26.2244 17.4663 26.1075 17.5807 25.9882C18.1104 25.4362 18.1104 24.735 17.5757 24.2004L16.0813 22.706C15.8277 22.4424 15.5244 22.3031 15.2061 22.3031C14.8878 22.3031 14.582 22.4424 14.3209 22.7035L13.4307 23.5937C13.3486 23.5464 13.2641 23.5041 13.1845 23.4644C13.0851 23.4146 12.9931 23.3674 12.911 23.3152C12.1004 22.8005 11.3644 22.1291 10.6607 21.2663C10.3051 20.8162 10.0664 20.4383 9.89983 20.0528C10.1336 19.8415 10.3524 19.6202 10.5637 19.4039C10.6383 19.3268 10.7154 19.2497 10.7925 19.1726C11.061 18.9041 11.2053 18.5932 11.2053 18.2775C11.2053 17.9617 11.0635 17.6508 10.7925 17.3823L10.0515 16.6413C9.96448 16.5543 9.88242 16.4697 9.79788 16.3827C9.63377 16.2136 9.4622 16.0396 9.29311 15.8829C9.037 15.6318 8.73613 15.5 8.41785 15.5C8.10207 15.5 7.79871 15.6318 7.53265 15.8854L6.60269 16.8154C6.26452 17.1535 6.07306 17.5638 6.03327 18.0387C5.98603 18.633 6.09543 19.2646 6.3789 20.028C6.81404 21.2091 7.47049 22.3056 8.44521 23.4768ZM6.63998 18.091C6.66982 17.7603 6.79664 17.4843 7.03534 17.2455L7.96033 16.3206C8.10455 16.1813 8.26369 16.1092 8.41785 16.1092C8.56953 16.1092 8.7237 16.1813 8.86543 16.3255C9.03203 16.4797 9.18868 16.6413 9.35776 16.8129C9.44231 16.8999 9.52933 16.9869 9.61636 17.0765L10.3573 17.8174C10.5115 17.9716 10.5911 18.1283 10.5911 18.2824C10.5911 18.4366 10.5115 18.5932 10.3573 18.7474C10.2803 18.8245 10.2032 18.9041 10.1261 18.9811C9.89485 19.2149 9.67853 19.4362 9.43982 19.6475C9.43485 19.6525 9.43236 19.655 9.42739 19.66C9.221 19.8663 9.25333 20.0628 9.30306 20.212C9.30555 20.2194 9.30803 20.2244 9.31052 20.2319C9.50198 20.6919 9.76804 21.1295 10.1833 21.6517C10.9293 22.5717 11.715 23.2853 12.5803 23.8349C12.6872 23.9045 12.8016 23.9592 12.9085 24.0139C13.008 24.0636 13.1 24.1109 13.182 24.1631C13.192 24.168 13.1995 24.173 13.2094 24.178C13.2915 24.2203 13.371 24.2402 13.4506 24.2402C13.6495 24.2402 13.7788 24.1133 13.8211 24.0711L14.751 23.1411C14.8953 22.9969 15.0519 22.9198 15.2061 22.9198C15.3951 22.9198 15.5492 23.0367 15.6462 23.1411L17.1456 24.638C17.444 24.9364 17.4415 25.2596 17.1381 25.5754C17.0337 25.6873 16.9243 25.7942 16.8074 25.9061C16.6334 26.0752 16.4518 26.2493 16.2877 26.4457C16.0018 26.754 15.6611 26.8983 15.221 26.8983C15.1787 26.8983 15.134 26.8958 15.0917 26.8933C14.2761 26.8411 13.5177 26.5228 12.9483 26.2518C11.4017 25.5033 10.044 24.4416 8.91765 23.0939C7.99017 21.9774 7.36605 20.938 6.95329 19.8241C6.69718 19.1403 6.6002 18.5908 6.63998 18.091Z" fill="#E27410"/>
</g>
<defs>
<clipPath id="clip0_33_1310">
<rect width="12" height="12" fill="white" transform="translate(6 15.5)"/>
</clipPath>
</defs>
</svg>
