<svg width="24" height="43" viewBox="0 0 24 43" fill="none" xmlns="http://www.w3.org/2000/svg">
<circle cx="12" cy="21.5" r="11.5" fill="white" stroke="#E27410"/>
<path d="M16.0975 24.8909H7.90253C7.63616 24.8906 7.38079 24.7846 7.19244 24.5963C7.0041 24.4079 6.89817 24.1525 6.89789 23.8862V18.825C6.89817 18.5587 7.0041 18.3033 7.19244 18.1149C7.38079 17.9266 7.63616 17.8206 7.90253 17.8203H16.0975C16.3638 17.8206 16.6192 17.9266 16.8076 18.1149C16.9959 18.3033 17.1018 18.5587 17.1021 18.825V23.8862C17.1018 24.1525 16.9959 24.4079 16.8076 24.5963C16.6192 24.7846 16.3638 24.8906 16.0975 24.8909ZM7.90253 18.2043C7.73796 18.2045 7.58019 18.2699 7.46383 18.3863C7.34748 18.5027 7.28204 18.6605 7.28189 18.825V23.8862C7.28204 24.0507 7.34748 24.2085 7.46383 24.3249C7.58019 24.4413 7.73796 24.5067 7.90253 24.5069H16.0975C16.262 24.5067 16.4198 24.4413 16.5362 24.3249C16.6525 24.2085 16.718 24.0507 16.7181 23.8862V18.825C16.718 18.6605 16.6525 18.5027 16.5362 18.3863C16.4198 18.2699 16.262 18.2045 16.0975 18.2043H7.90253Z" fill="#E27410"/>
<path d="M12 22.4856C11.9532 22.4856 11.908 22.4685 11.8729 22.4376L7.24567 18.3529L7.49978 18.0649L12 22.0378L16.5004 18.0654L16.7545 18.3534L12.1273 22.438C12.0921 22.4689 12.0468 22.4858 12 22.4856Z" fill="#E27410"/>
<path d="M7.14124 24.2881L10.2497 20.7463L10.5385 20.9997L7.43 24.5415L7.14124 24.2881Z" fill="#E27410"/>
<path d="M13.4713 20.9961L13.76 20.7427L16.8686 24.2845L16.5798 24.538L13.4713 20.9961Z" fill="#E27410"/>
</svg>
