<svg width="24" height="43" viewBox="0 0 24 43" fill="none" xmlns="http://www.w3.org/2000/svg">
<circle cx="12" cy="21.5" r="11.5" fill="white" stroke="#E27410"/>
<path d="M12 28.6902C8.03549 28.6902 4.81012 25.4648 4.81012 21.5002C4.81012 17.5358 8.03549 14.3105 12 14.3105C15.9645 14.3105 19.1898 17.5358 19.1898 21.5002C19.1898 25.4648 15.9645 28.6902 12 28.6902ZM12 15.3105C8.58686 15.3105 5.81012 18.0872 5.81012 21.5002C5.81012 24.9134 8.58686 27.6902 12 27.6902C15.4131 27.6902 18.1899 24.9134 18.1899 21.5002C18.1899 18.0872 15.4131 15.3105 12 15.3105Z" fill="#E27410"/>
<path d="M14.41 23.8929C14.3213 23.8929 14.2315 23.8693 14.1503 23.8197L11.7398 22.3507C11.5908 22.2599 11.5 22.0981 11.5 21.9237V18.374C11.5 18.0979 11.7239 17.874 12 17.874C12.2761 17.874 12.5 18.0979 12.5 18.374V21.6429L14.6707 22.9658C14.9065 23.1095 14.9811 23.4172 14.8374 23.653C14.7433 23.8075 14.5786 23.8929 14.41 23.8929Z" fill="#E27410"/>
</svg>
