<svg width="40" height="25" viewBox="0 0 40 25" fill="none" xmlns="http://www.w3.org/2000/svg">
<path d="M0 1C0 0.447715 0.447715 0 1 0H39C39.5523 0 40 0.447715 40 1V2C40 2.55228 39.5523 3 39 3H0.999999C0.447714 3 0 2.55228 0 2V1Z" fill="#313B59"/>
<path d="M0 12C0 11.4477 0.447715 11 1 11H39C39.5523 11 40 11.4477 40 12V13C40 13.5523 39.5523 14 39 14H0.999999C0.447714 14 0 13.5523 0 13V12Z" fill="#313B59"/>
<path d="M0 23C0 22.4477 0.447715 22 1 22H39C39.5523 22 40 22.4477 40 23V24C40 24.5523 39.5523 25 39 25H0.999999C0.447714 25 0 24.5523 0 24V23Z" fill="#313B59"/>
</svg>
